<svg class="apunte-svg" xmlns="http://www.w3.org/2000/svg" viewBox="0 0 480 300" role="img" aria-label="Newton-Raphson con x₀ = 1,2, cerca del mínimo de F: la tangente casi horizontal lo dispara lejos" style="font-family:var(--font-sans,system-ui,sans-serif)">
  <title>Newton-Raphson con x₀ = 1,2, cerca del mínimo de F: la tangente casi horizontal lo dispara lejos</title>
  <desc>F'(1,2) ≈ 0,238, así que x₁ = 3,607 queda lejos de α; el mínimo de F (F' = 0) está en x ≈ 1,030. Después vuelve: x₂ = 2,235, x₃ = 1,969.</desc>
  <defs><clipPath id="marco-newton-falla"><rect x="48" y="16" width="416" height="244"/></clipPath></defs>
  <line x1="48.0" y1="260.0" x2="48.0" y2="16.0" style="stroke:var(--border,#d7dfe6);stroke-width:1"/>
  <text x="48.0" y="278.0" text-anchor="middle" style="fill:var(--text-muted,#5a6b7a);font-size:14px">0</text>
  <line x1="152.0" y1="260.0" x2="152.0" y2="16.0" style="stroke:var(--border,#d7dfe6);stroke-width:1"/>
  <text x="152.0" y="278.0" text-anchor="middle" style="fill:var(--text-muted,#5a6b7a);font-size:14px">1</text>
  <line x1="256.0" y1="260.0" x2="256.0" y2="16.0" style="stroke:var(--border,#d7dfe6);stroke-width:1"/>
  <text x="256.0" y="278.0" text-anchor="middle" style="fill:var(--text-muted,#5a6b7a);font-size:14px">2</text>
  <line x1="360.0" y1="260.0" x2="360.0" y2="16.0" style="stroke:var(--border,#d7dfe6);stroke-width:1"/>
  <text x="360.0" y="278.0" text-anchor="middle" style="fill:var(--text-muted,#5a6b7a);font-size:14px">3</text>
  <line x1="464.0" y1="260.0" x2="464.0" y2="16.0" style="stroke:var(--border,#d7dfe6);stroke-width:1"/>
  <text x="464.0" y="278.0" text-anchor="middle" style="fill:var(--text-muted,#5a6b7a);font-size:14px">4</text>
  <line x1="48.0" y1="214.2" x2="464.0" y2="214.2" style="stroke:var(--border,#d7dfe6);stroke-width:1"/>
  <text x="42.0" y="214.2" text-anchor="end" dominant-baseline="middle" style="fill:var(--text-muted,#5a6b7a);font-size:14px">0</text>
  <line x1="48.0" y1="163.4" x2="464.0" y2="163.4" style="stroke:var(--border,#d7dfe6);stroke-width:1"/>
  <text x="42.0" y="163.4" text-anchor="end" dominant-baseline="middle" style="fill:var(--text-muted,#5a6b7a);font-size:14px">1</text>
  <line x1="48.0" y1="112.6" x2="464.0" y2="112.6" style="stroke:var(--border,#d7dfe6);stroke-width:1"/>
  <text x="42.0" y="112.6" text-anchor="end" dominant-baseline="middle" style="fill:var(--text-muted,#5a6b7a);font-size:14px">2</text>
  <line x1="48.0" y1="61.8" x2="464.0" y2="61.8" style="stroke:var(--border,#d7dfe6);stroke-width:1"/>
  <text x="42.0" y="61.8" text-anchor="end" dominant-baseline="middle" style="fill:var(--text-muted,#5a6b7a);font-size:14px">3</text>
  <rect x="48.0" y="16.0" width="416.0" height="244.0" style="fill:none;stroke:var(--text-muted,#5a6b7a);stroke-width:1"/>
  <line x1="48.0" y1="214.2" x2="464.0" y2="214.2" style="stroke:var(--text-muted,#5a6b7a);stroke-width:1.4"/>
  <text x="464.0" y="296.0" text-anchor="end" style="fill:var(--text-muted,#5a6b7a);font-size:14px;font-style:italic">x</text>
  <g clip-path="url(#marco-newton-falla)"><polyline points="48.0,214.2 49.7,215.1 51.5,215.9 53.2,216.8 54.9,217.6 56.7,218.4 58.4,219.2 60.1,220.0 61.9,220.8 63.6,221.6 65.3,222.3 67.1,223.1 68.8,223.8 70.5,224.6 72.3,225.3 74.0,226.0 75.7,226.7 77.5,227.4 79.2,228.1 80.9,228.8 82.7,229.5 84.4,230.1 86.1,230.8 87.9,231.4 89.6,232.0 91.3,232.6 93.1,233.2 94.8,233.8 96.5,234.4 98.3,234.9 100.0,235.4 101.7,236.0 103.5,236.5 105.2,237.0 106.9,237.5 108.7,237.9 110.4,238.4 112.1,238.8 113.9,239.2 115.6,239.6 117.3,240.0 119.1,240.4 120.8,240.8 122.5,241.1 124.3,241.4 126.0,241.8 127.7,242.0 129.5,242.3 131.2,242.6 132.9,242.8 134.7,243.1 136.4,243.3 138.1,243.4 139.9,243.6 141.6,243.8 143.3,243.9 145.1,244.0 146.8,244.1 148.5,244.2 150.3,244.3 152.0,244.3 153.7,244.3 155.5,244.3 157.2,244.3 158.9,244.3 160.7,244.2 162.4,244.2 164.1,244.1 165.9,244.0 167.6,243.8 169.3,243.7 171.1,243.5 172.8,243.3 174.5,243.1 176.3,242.9 178.0,242.6 179.7,242.4 181.5,242.1 183.2,241.8 184.9,241.4 186.7,241.1 188.4,240.7 190.1,240.3 191.9,239.9 193.6,239.4 195.3,239.0 197.1,238.5 198.8,238.0 200.5,237.5 202.3,236.9 204.0,236.4 205.7,235.8 207.5,235.2 209.2,234.5 210.9,233.9 212.7,233.2 214.4,232.5 216.1,231.8 217.9,231.1 219.6,230.3 221.3,229.5 223.1,228.8 224.8,227.9 226.5,227.1 228.3,226.2 230.0,225.4 231.7,224.4 233.5,223.5 235.2,222.6 236.9,221.6 238.7,220.6 240.4,219.6 242.1,218.6 243.9,217.5 245.6,216.5 247.3,215.4 249.1,214.3 250.8,213.1 252.5,212.0 254.3,210.8 256.0,209.6 257.7,208.4 259.5,207.2 261.2,206.0 262.9,204.7 264.7,203.4 266.4,202.1 268.1,200.8 269.9,199.4 271.6,198.0 273.3,196.7 275.1,195.3 276.8,193.8 278.5,192.4 280.3,190.9 282.0,189.5 283.7,188.0 285.5,186.5 287.2,184.9 288.9,183.4 290.7,181.8 292.4,180.2 294.1,178.6 295.9,177.0 297.6,175.4 299.3,173.7 301.1,172.1 302.8,170.4 304.5,168.7 306.3,167.0 308.0,165.2 309.7,163.5 311.5,161.7 313.2,160.0 314.9,158.2 316.7,156.4 318.4,154.5 320.1,152.7 321.9,150.9 323.6,149.0 325.3,147.1 327.1,145.2 328.8,143.3 330.5,141.4 332.3,139.5 334.0,137.5 335.7,135.6 337.5,133.6 339.2,131.6 340.9,129.7 342.7,127.7 344.4,125.6 346.1,123.6 347.9,121.6 349.6,119.5 351.3,117.5 353.1,115.4 354.8,113.3 356.5,111.2 358.3,109.2 360.0,107.0 361.7,104.9 363.5,102.8 365.2,100.7 366.9,98.5 368.7,96.4 370.4,94.2 372.1,92.1 373.9,89.9 375.6,87.7 377.3,85.5 379.1,83.3 380.8,81.1 382.5,78.9 384.3,76.7 386.0,74.5 387.7,72.3 389.5,70.1 391.2,67.8 392.9,65.6 394.7,63.4 396.4,61.1 398.1,58.9 399.9,56.6 401.6,54.4 403.3,52.1 405.1,49.8 406.8,47.6 408.5,45.3 410.3,43.0 412.0,40.7 413.7,38.5 415.5,36.2 417.2,33.9 418.9,31.6 420.7,29.3 422.4,27.1 424.1,24.8 425.9,22.5 427.6,20.2 429.3,17.9 431.1,15.6 432.8,13.3 434.5,11.1 436.3,8.8 438.0,6.5 439.7,4.2 441.5,1.9 443.2,-0.4 444.9,-2.6 446.7,-4.9 448.4,-7.2 450.1,-9.5 451.9,-11.7 453.6,-14.0 455.3,-16.3 457.1,-18.5 458.8,-20.8 460.5,-23.1 462.3,-25.3 464.0,-27.6" style="fill:none;stroke:var(--accent,#1f5fa8);stroke-width:2.4;stroke-linejoin:round;stroke-linecap:round"/></g>
  <text x="391.2" y="52.6" text-anchor="end" style="fill:var(--accent,#1f5fa8);font-size:14px;font-style:italic;paint-order:stroke;stroke:var(--surface,#ffffff);stroke-width:4px;stroke-linejoin:round">F(x)</text>
  <line x1="103.1" y1="244.3" x2="207.1" y2="244.3" style="stroke:var(--text-muted,#5a6b7a);stroke-width:1.2;stroke-dasharray:4 3"/>
  <text x="97.9" y="244.3" text-anchor="end" dominant-baseline="middle" style="fill:var(--text-muted,#5a6b7a);font-size:12px;paint-order:stroke;stroke:var(--surface,#ffffff);stroke-width:4px;stroke-linejoin:round">F' = 0</text>
  <line x1="172.8" y1="214.2" x2="172.8" y2="243.3" style="stroke:var(--text-muted,#5a6b7a);stroke-width:0.9;stroke-dasharray:2 3"/>
  <line x1="172.8" y1="243.3" x2="423.1" y2="214.2" style="stroke:var(--bad,#c4453c);stroke-width:1.6"/>
  <circle cx="172.8" cy="243.3" r="3.5" style="fill:var(--bad,#c4453c);stroke:var(--bad,#c4453c);stroke-width:1.8"/>
  <line x1="423.1" y1="214.2" x2="423.1" y2="26.1" style="stroke:var(--text-muted,#5a6b7a);stroke-width:0.9;stroke-dasharray:2 3"/>
  <line x1="423.1" y1="26.1" x2="280.4" y2="214.2" style="stroke:var(--bad,#c4453c);stroke-width:1.6"/>
  <circle cx="423.1" cy="26.1" r="3.5" style="fill:var(--bad,#c4453c);stroke:var(--bad,#c4453c);stroke-width:1.8"/>
  <circle cx="172.8" cy="214.2" r="3.2" style="fill:var(--bad,#c4453c);stroke:var(--bad,#c4453c);stroke-width:1.8"/>
  <circle cx="423.1" cy="214.2" r="3.2" style="fill:var(--bad,#c4453c);stroke:var(--bad,#c4453c);stroke-width:1.8"/>
  <circle cx="280.4" cy="214.2" r="3.2" style="fill:var(--bad,#c4453c);stroke:var(--bad,#c4453c);stroke-width:1.8"/>
  <circle cx="249.1" cy="214.2" r="3.5" style="fill:var(--text,#16212c);stroke:var(--text,#16212c);stroke-width:1.8"/>
  <text x="249.1" y="201.5" text-anchor="middle" style="fill:var(--text,#16212c);font-size:14px;font-style:italic;paint-order:stroke;stroke:var(--surface,#ffffff);stroke-width:4px;stroke-linejoin:round">α</text>
  <text x="53.2" y="201.5" text-anchor="start" style="fill:var(--text-muted,#5a6b7a);font-size:12px;paint-order:stroke;stroke:var(--surface,#ffffff);stroke-width:4px;stroke-linejoin:round">0 (otra raíz)</text>
  <circle cx="48.0" cy="214.2" r="3" style="fill:var(--text-muted,#5a6b7a);stroke:var(--text-muted,#5a6b7a);stroke-width:1.8"/>
  <text x="172.8" y="204.1" text-anchor="middle" style="fill:var(--bad,#c4453c);font-size:13px;font-weight:600;paint-order:stroke;stroke:var(--surface,#ffffff);stroke-width:4px;stroke-linejoin:round">x₀</text>
  <text x="423.1" y="204.1" text-anchor="middle" style="fill:var(--bad,#c4453c);font-size:13px;font-weight:600;paint-order:stroke;stroke:var(--surface,#ffffff);stroke-width:4px;stroke-linejoin:round">x₁</text>
  <text x="284.6" y="218.3" text-anchor="start" dominant-baseline="hanging" style="fill:var(--bad,#c4453c);font-size:13px;font-weight:600;paint-order:stroke;stroke:var(--surface,#ffffff);stroke-width:4px;stroke-linejoin:round">x₂</text>
  <text x="58.4" y="33.8" text-anchor="start" style="fill:var(--text,#16212c);font-size:13px;paint-order:stroke;stroke:var(--surface,#ffffff);stroke-width:4px;stroke-linejoin:round">F'(x₀) ≈ 0,24 → salto de 2,4</text>
</svg>
