<svg class="apunte-svg" xmlns="http://www.w3.org/2000/svg" viewBox="0 0 480 440" role="img" aria-label="Punto fijo con g(x) = x − 2(x²/4 − sen x): la telaraña se abre y diverge" style="font-family:var(--font-sans,system-ui,sans-serif)">
  <title>Punto fijo con g(x) = x − 2(x²/4 − sen x): la telaraña se abre y diverge</title>
  <desc>Misma raíz, pero con φ = 2 queda g'(α) ≈ −1,64: cada salto es más grande que el anterior (1,900 → 1,988 → 1,841 → 2,074 → 1,676 → …) aunque x₀ = 1,9 arranca muy cerca de α.</desc>
  <defs><clipPath id="marco-punto-fijo-divergente"><rect x="48" y="16" width="356" height="384"/></clipPath></defs>
  <line x1="67.8" y1="400.0" x2="67.8" y2="16.0" style="stroke:var(--border,#d7dfe6);stroke-width:1"/>
  <text x="67.8" y="418.0" text-anchor="middle" style="fill:var(--text-muted,#5a6b7a);font-size:14px">1,6</text>
  <line x1="146.9" y1="400.0" x2="146.9" y2="16.0" style="stroke:var(--border,#d7dfe6);stroke-width:1"/>
  <text x="146.9" y="418.0" text-anchor="middle" style="fill:var(--text-muted,#5a6b7a);font-size:14px">1,8</text>
  <line x1="226.0" y1="400.0" x2="226.0" y2="16.0" style="stroke:var(--border,#d7dfe6);stroke-width:1"/>
  <text x="226.0" y="418.0" text-anchor="middle" style="fill:var(--text-muted,#5a6b7a);font-size:14px">2,0</text>
  <line x1="305.1" y1="400.0" x2="305.1" y2="16.0" style="stroke:var(--border,#d7dfe6);stroke-width:1"/>
  <text x="305.1" y="418.0" text-anchor="middle" style="fill:var(--text-muted,#5a6b7a);font-size:14px">2,2</text>
  <line x1="384.2" y1="400.0" x2="384.2" y2="16.0" style="stroke:var(--border,#d7dfe6);stroke-width:1"/>
  <text x="384.2" y="418.0" text-anchor="middle" style="fill:var(--text-muted,#5a6b7a);font-size:14px">2,4</text>
  <line x1="48.0" y1="378.7" x2="404.0" y2="378.7" style="stroke:var(--border,#d7dfe6);stroke-width:1"/>
  <text x="42.0" y="378.7" text-anchor="end" dominant-baseline="middle" style="fill:var(--text-muted,#5a6b7a);font-size:14px">1,6</text>
  <line x1="48.0" y1="293.3" x2="404.0" y2="293.3" style="stroke:var(--border,#d7dfe6);stroke-width:1"/>
  <text x="42.0" y="293.3" text-anchor="end" dominant-baseline="middle" style="fill:var(--text-muted,#5a6b7a);font-size:14px">1,8</text>
  <line x1="48.0" y1="208.0" x2="404.0" y2="208.0" style="stroke:var(--border,#d7dfe6);stroke-width:1"/>
  <text x="42.0" y="208.0" text-anchor="end" dominant-baseline="middle" style="fill:var(--text-muted,#5a6b7a);font-size:14px">2,0</text>
  <line x1="48.0" y1="122.7" x2="404.0" y2="122.7" style="stroke:var(--border,#d7dfe6);stroke-width:1"/>
  <text x="42.0" y="122.7" text-anchor="end" dominant-baseline="middle" style="fill:var(--text-muted,#5a6b7a);font-size:14px">2,2</text>
  <line x1="48.0" y1="37.3" x2="404.0" y2="37.3" style="stroke:var(--border,#d7dfe6);stroke-width:1"/>
  <text x="42.0" y="37.3" text-anchor="end" dominant-baseline="middle" style="fill:var(--text-muted,#5a6b7a);font-size:14px">2,4</text>
  <rect x="48.0" y="16.0" width="356.0" height="384.0" style="fill:none;stroke:var(--text-muted,#5a6b7a);stroke-width:1"/>
  <text x="404.0" y="436.0" text-anchor="end" style="fill:var(--text-muted,#5a6b7a);font-size:14px;font-style:italic">x</text>
  <line x1="48.0" y1="400.0" x2="404.0" y2="16.0" style="stroke:var(--text-muted,#5a6b7a);stroke-width:1.4"/>
  <text x="407.6" y="16.0" text-anchor="start" dominant-baseline="middle" style="fill:var(--text-muted,#5a6b7a);font-size:13px">y = x</text>
  <g clip-path="url(#marco-punto-fijo-divergente)"><polyline points="48.0,59.4 49.5,60.2 51.0,61.0 52.4,61.9 53.9,62.8 55.4,63.7 56.9,64.6 58.4,65.5 59.9,66.5 61.3,67.4 62.8,68.4 64.3,69.4 65.8,70.4 67.3,71.5 68.8,72.5 70.2,73.6 71.7,74.7 73.2,75.8 74.7,76.9 76.2,78.1 77.7,79.3 79.2,80.4 80.6,81.6 82.1,82.9 83.6,84.1 85.1,85.3 86.6,86.6 88.1,87.9 89.5,89.2 91.0,90.5 92.5,91.9 94.0,93.2 95.5,94.6 97.0,96.0 98.4,97.4 99.9,98.9 101.4,100.3 102.9,101.8 104.4,103.3 105.8,104.8 107.3,106.3 108.8,107.9 110.3,109.4 111.8,111.0 113.3,112.6 114.7,114.2 116.2,115.8 117.7,117.5 119.2,119.1 120.7,120.8 122.2,122.5 123.6,124.2 125.1,126.0 126.6,127.7 128.1,129.5 129.6,131.3 131.1,133.1 132.6,134.9 134.0,136.8 135.5,138.6 137.0,140.5 138.5,142.4 140.0,144.3 141.5,146.3 142.9,148.2 144.4,150.2 145.9,152.2 147.4,154.2 148.9,156.2 150.3,158.2 151.8,160.3 153.3,162.4 154.8,164.5 156.3,166.6 157.8,168.7 159.2,170.9 160.7,173.0 162.2,175.2 163.7,177.4 165.2,179.6 166.7,181.8 168.1,184.1 169.6,186.4 171.1,188.6 172.6,191.0 174.1,193.3 175.6,195.6 177.1,198.0 178.5,200.3 180.0,202.7 181.5,205.1 183.0,207.6 184.5,210.0 186.0,212.5 187.4,214.9 188.9,217.4 190.4,220.0 191.9,222.5 193.4,225.0 194.9,227.6 196.3,230.2 197.8,232.8 199.3,235.4 200.8,238.0 202.3,240.7 203.8,243.3 205.2,246.0 206.7,248.7 208.2,251.4 209.7,254.2 211.2,256.9 212.6,259.7 214.1,262.5 215.6,265.3 217.1,268.1 218.6,271.0 220.1,273.8 221.5,276.7 223.0,279.6 224.5,282.5 226.0,285.4 227.5,288.3 229.0,291.3 230.4,294.3 231.9,297.3 233.4,300.3 234.9,303.3 236.4,306.3 237.9,309.4 239.3,312.5 240.8,315.6 242.3,318.7 243.8,321.8 245.3,324.9 246.8,328.1 248.3,331.3 249.7,334.5 251.2,337.7 252.7,340.9 254.2,344.1 255.7,347.4 257.2,350.7 258.6,354.0 260.1,357.3 261.6,360.6 263.1,363.9 264.6,367.3 266.1,370.7 267.5,374.0 269.0,377.4 270.5,380.9 272.0,384.3 273.5,387.8 275.0,391.2 276.4,394.7 277.9,398.2 279.4,401.7 280.9,405.3 282.4,408.8 283.9,412.4 285.3,416.0 286.8,419.6 288.3,423.2 289.8,426.8 291.3,430.5 292.8,434.1 294.2,437.8 295.7,441.5 297.2,445.2 298.7,449.0 300.2,452.7 301.6,456.5 303.1,460.2 304.6,464.0 306.1,467.8 307.6,471.6 309.1,475.5 310.5,479.3 312.0,483.2 313.5,487.1 315.0,491.0 316.5,494.9 318.0,498.8 319.4,502.8 320.9,506.7 322.4,510.7 323.9,514.7 325.4,518.7 326.9,522.7 328.3,526.8 329.8,530.8 331.3,534.9 332.8,539.0 334.3,543.1 335.8,547.2 337.2,551.3 338.7,555.5 340.2,559.6 341.7,563.8 343.2,568.0 344.7,572.2 346.1,576.4 347.6,580.7 349.1,584.9 350.6,589.2 352.1,593.4 353.6,597.7 355.1,602.0 356.5,606.4 358.0,610.7 359.5,615.1 361.0,619.4 362.5,623.8 363.9,628.2 365.4,632.6 366.9,637.0 368.4,641.5 369.9,645.9 371.4,650.4 372.9,654.9 374.3,659.4 375.8,663.9 377.3,668.4 378.8,673.0 380.3,677.5 381.8,682.1 383.2,686.7 384.7,691.3 386.2,695.9 387.7,700.5 389.2,705.1 390.7,709.8 392.1,714.5 393.6,719.2 395.1,723.8 396.6,728.6 398.1,733.3 399.6,738.0 401.0,742.8 402.5,747.5 404.0,752.3" style="fill:none;stroke:var(--accent,#1f5fa8);stroke-width:2.4;stroke-linejoin:round;stroke-linecap:round"/></g>
  <text x="90.7" y="84.1" text-anchor="start" style="fill:var(--accent,#1f5fa8);font-size:13px;font-style:italic;paint-order:stroke;stroke:var(--surface,#ffffff);stroke-width:4px;stroke-linejoin:round">g(x)</text>
  <g clip-path="url(#marco-punto-fijo-divergente)"><polyline points="186.4,400.0 186.4,213.3 221.1,213.3 221.1,275.8 163.1,275.8 163.1,176.6 255.1,176.6 255.1,346.2 97.9,346.2 97.9,96.9 329.0,96.9 329.0,528.6 -71.2,528.6" style="fill:none;stroke:var(--accent-2,#b45a24);stroke-width:1.6;stroke-linejoin:round;stroke-linecap:round"/></g>
  <line x1="186.4" y1="400.0" x2="186.4" y2="250.7" style="stroke:var(--text-muted,#5a6b7a);stroke-width:0.9;stroke-dasharray:2 3"/>
  <circle cx="186.4" cy="400.0" r="3.2" style="fill:var(--accent-2,#b45a24);stroke:var(--accent-2,#b45a24);stroke-width:1.8"/>
  <line x1="221.1" y1="400.0" x2="221.1" y2="213.3" style="stroke:var(--text-muted,#5a6b7a);stroke-width:0.9;stroke-dasharray:2 3"/>
  <circle cx="221.1" cy="400.0" r="3.2" style="fill:var(--accent-2,#b45a24);stroke:var(--accent-2,#b45a24);stroke-width:1.8"/>
  <line x1="163.1" y1="400.0" x2="163.1" y2="275.8" style="stroke:var(--text-muted,#5a6b7a);stroke-width:0.9;stroke-dasharray:2 3"/>
  <circle cx="163.1" cy="400.0" r="3.2" style="fill:var(--accent-2,#b45a24);stroke:var(--accent-2,#b45a24);stroke-width:1.8"/>
  <line x1="255.1" y1="400.0" x2="255.1" y2="176.6" style="stroke:var(--text-muted,#5a6b7a);stroke-width:0.9;stroke-dasharray:2 3"/>
  <circle cx="255.1" cy="400.0" r="3.2" style="fill:var(--accent-2,#b45a24);stroke:var(--accent-2,#b45a24);stroke-width:1.8"/>
  <text x="183.6" y="390.4" text-anchor="end" style="fill:var(--accent-2,#b45a24);font-size:13px;font-weight:600;paint-order:stroke;stroke:var(--surface,#ffffff);stroke-width:4px;stroke-linejoin:round">x₀</text>
  <text x="223.9" y="390.4" text-anchor="start" style="fill:var(--accent-2,#b45a24);font-size:13px;font-weight:600;paint-order:stroke;stroke:var(--surface,#ffffff);stroke-width:4px;stroke-linejoin:round">x₁</text>
  <text x="160.3" y="390.4" text-anchor="end" style="fill:var(--accent-2,#b45a24);font-size:13px;font-weight:600;paint-order:stroke;stroke:var(--surface,#ffffff);stroke-width:4px;stroke-linejoin:round">x₂</text>
  <circle cx="199.8" cy="236.3" r="3.5" style="fill:var(--text,#16212c);stroke:var(--text,#16212c);stroke-width:1.8"/>
  <text x="189.1" y="224.7" text-anchor="end" style="fill:var(--text,#16212c);font-size:14px;font-style:italic;paint-order:stroke;stroke:var(--surface,#ffffff);stroke-width:4px;stroke-linejoin:round">α</text>
  <text x="398.7" y="365.4" text-anchor="end" style="fill:var(--text,#16212c);font-size:13px;paint-order:stroke;stroke:var(--surface,#ffffff);stroke-width:4px;stroke-linejoin:round">g'(α) ≈ −1,64</text>
</svg>
